<?xml version="1.0" encoding="UTF-8"?>
<svg version="1.1" xmlns="http://www.w3.org/2000/svg" width="128" height="128">
<path d="M0 0 C3.82669024 0.0479192 3.82669024 0.0479192 6.0625 1.5625 C8.343655 5.18551087 8.27475108 8.48133107 8.33032227 12.64916992 C8.34022186 13.29334366 8.35012146 13.9375174 8.36032104 14.60121155 C8.39187467 16.7275934 8.41666905 18.85399758 8.44140625 20.98046875 C8.46198109 22.45592322 8.4829777 23.93137186 8.50437927 25.40681458 C8.55954526 29.28819051 8.60897862 33.16961915 8.65722656 37.05108643 C8.70748158 41.01262091 8.76314676 44.97407894 8.81835938 48.93554688 C8.92587399 56.70696649 9.02733377 64.47844972 9.125 72.25 C9.54797363 71.80084229 9.97094727 71.35168457 10.40673828 70.88891602 C12.34111036 68.85024732 14.29509032 66.83147507 16.25 64.8125 C16.91515625 64.10544922 17.5803125 63.39839844 18.265625 62.66992188 C23.2996997 57.51246299 23.2996997 57.51246299 27.44140625 56.1953125 C30.81880607 56.2641387 32.47266584 57.20391365 35.125 59.25 C36.63389469 62.26778937 36.62526276 63.87322637 36.125 67.25 C31.27972533 74.18640406 24.43836259 80.09041391 18.45288086 86.05249023 C16.79487045 87.70507182 15.14236024 89.36302199 13.49023438 91.02148438 C12.43521689 92.07584219 11.37988986 93.12989038 10.32421875 94.18359375 C9.58518562 94.92566322 9.58518562 94.92566322 8.83122253 95.682724 C6.06893597 98.42598902 4.3669787 100.01343263 0.5 100.75 C-8.01198627 99.488965 -15.71401175 88.56477025 -21.67749023 82.57788086 C-23.33007182 80.91987045 -24.98802199 79.26736024 -26.64648438 77.61523438 C-27.70084219 76.56021689 -28.75489038 75.50488986 -29.80859375 74.44921875 C-30.30330673 73.95653 -30.79801971 73.46384125 -31.307724 72.95622253 C-35.76947532 68.46353385 -35.76947532 68.46353385 -36.125 64.375 C-35.84333695 60.8542119 -35.48792013 59.60162812 -32.875 57.25 C-29.57453435 56.1737612 -27.77844089 55.82082671 -24.60546875 57.328125 C-21.02772985 59.84636182 -18.10469214 62.80712838 -15.0625 65.9375 C-14.46501953 66.54400391 -13.86753906 67.15050781 -13.25195312 67.77539062 C-11.78835815 69.26240312 -10.33103898 70.75558811 -8.875 72.25 C-8.86913376 71.43425003 -8.86326752 70.61850006 -8.85722351 69.7780304 C-8.79927179 62.0828387 -8.7271812 54.38796987 -8.63928509 46.6930666 C-8.59459545 42.73721168 -8.55533643 38.78145942 -8.52856445 34.82543945 C-8.50251711 31.00621242 -8.46210515 27.1873807 -8.41181374 23.36839867 C-8.39515458 21.91284294 -8.38363435 20.45721884 -8.37738609 19.00158119 C-8.36773415 16.95937482 -8.33966477 14.91817753 -8.30737305 12.8762207 C-8.29626999 11.71484085 -8.28516693 10.553461 -8.27372742 9.35688782 C-7.54131475 3.64992133 -5.72747273 0.36951437 0 0 Z " fill="#000000" transform="translate(63.875,-0.25)"/>
<path d="M0 0 C2.85798897 1.65128251 3.63941186 2.12332793 5 5 C5.46346419 8.56314672 5.62535112 12.03258406 5.6640625 15.625 C6.03417035 19.34329279 6.68735849 21.09152508 9 24 C13.14613846 27.15771632 16.789488 27.43058272 21.83203125 27.38818359 C22.60501556 27.39344055 23.37799988 27.39869751 24.17440796 27.40411377 C26.72064631 27.41727989 29.26625567 27.40858794 31.8125 27.3984375 C33.58699666 27.40045921 35.36149251 27.40337147 37.13598633 27.40713501 C40.85148036 27.41155376 44.56675775 27.40514178 48.28222656 27.39111328 C53.04042303 27.37402162 57.79811182 27.38386521 62.55628967 27.40183067 C66.21948051 27.41268065 69.88255136 27.4092166 73.54574585 27.4014473 C75.29999858 27.39944865 77.05426227 27.40189279 78.8085022 27.40888596 C81.26195053 27.41652048 83.71458118 27.40486874 86.16796875 27.38818359 C86.89019623 27.39425629 87.61242371 27.40032898 88.35653687 27.40658569 C92.74621261 27.35139031 95.49631627 26.66872712 99 24 C102.85141394 19.14570147 102.39970939 14.33797894 102.49609375 8.375 C103.08744675 4.41431011 104.12969182 2.75220963 107 0 C110.55047746 -0.50721107 112.89134781 -0.48701507 116.1875 0.9609375 C119.12859002 4.26966377 118.59328276 7.85150915 118.5 12.125 C118.48296021 13.41506958 118.48296021 13.41506958 118.46557617 14.73120117 C118.27712214 20.8720021 117.56422767 25.85297386 114 31 C112.9171875 32.60875 112.9171875 32.60875 111.8125 34.25 C105.11815906 40.79557781 98.11049182 43.14524609 88.90771484 43.17700195 C88.08292633 43.18357315 87.25813782 43.19014435 86.40835571 43.19691467 C83.67588203 43.21664029 80.94346338 43.22831069 78.2109375 43.23828125 C77.27612171 43.24235678 76.34130592 43.2464323 75.37816238 43.25063133 C70.42707795 43.27149225 65.47602122 43.285792 60.52490234 43.29516602 C55.42399339 43.30621045 50.32352307 43.34058758 45.22276878 43.38033772 C41.29008199 43.40655573 37.3574987 43.41486261 33.42473221 43.41844749 C31.54536615 43.42330266 29.66600438 43.43488597 27.78672409 43.45348549 C16.44446635 43.55873384 8.37152436 43.28852601 -1.25 36.8125 C-8.26919524 29.6337776 -10.2041289 22.22450048 -10.3125 12.5 C-10.34150391 11.63246094 -10.37050781 10.76492187 -10.40039062 9.87109375 C-10.46418135 3.5214633 -10.46418135 3.5214633 -8.1640625 0.9375 C-5.13792261 -0.37346313 -3.26779145 -0.53351697 0 0 Z " fill="#000000" transform="translate(10,85)"/>
</svg>
